<?xml version="1.0" encoding="utf-8"?>
<!-- Generator: Adobe Illustrator 16.0.0, SVG Export Plug-In . SVG Version: 6.00 Build 0)  -->
<!DOCTYPE svg PUBLIC "-//W3C//DTD SVG 1.1//EN" "http://www.w3.org/Graphics/SVG/1.1/DTD/svg11.dtd">
<svg version="1.1" id="Layer_1" xmlns="http://www.w3.org/2000/svg" xmlns:xlink="http://www.w3.org/1999/xlink" x="0px" y="0px"
	 width="100%" height="841.89px" viewBox="0 0 1190.55 841.89" enable-background="new 0 0 1190.55 841.89"
	 xml:space="preserve">
<g>
	<defs>
		<path id="SVGID_1_" d="M273.076,205.74h-0.093l44.394,82.926h555.585l41.587-77.654c4.914-7.828,7.513-15.957,7.513-24.304
			c0-62.667-146.31-113.469-326.788-113.469s-326.785,50.802-326.785,113.469C268.488,193.198,270.062,199.558,273.076,205.74z"/>
	</defs>
	<clipPath id="SVGID_2_">
		<use xlink:href="#SVGID_1_"  overflow="visible"/>
	</clipPath>
	<g clip-path="url(#SVGID_2_)">
		
			<image overflow="visible" width="3277" height="898" xlink:href="D4AB548B6619E384.png"  transform="matrix(0.24 0 0 0.24 202.1162 73.2393)">
		</image>
	</g>
</g>
<g>
	
		<radialGradient id="SVGID_3_" cx="392.3232" cy="592.79" r="0.4764" gradientTransform="matrix(-592.1367 -114.4507 -384.5381 176.2387 460823.5 -59281.125)" gradientUnits="userSpaceOnUse">
		<stop  offset="0.8957" style="stop-color:#7D481D"/>
		<stop  offset="1" style="stop-color:#F78C1F"/>
	</radialGradient>
	<path fill="url(#SVGID_3_)" d="M359.346,229.784c84.616-38.776,258.844-49.802,389.136-24.62
		c130.302,25.184,167.329,77.032,82.719,115.824c-84.613,38.779-258.839,49.8-389.138,24.615
		C311.766,320.42,274.729,268.565,359.346,229.784z"/>
</g>
<g>
	<defs>
		<path id="SVGID_4_" d="M365.31,387.716h0.021l36.854,68.825h386.168l36.854-68.825h0.024c1.917-3.584,2.917-7.255,2.917-10.994
			c0-38.281-104.262-69.312-232.875-69.312c-128.616,0-232.88,31.031-232.88,69.312C362.394,380.461,363.398,384.131,365.31,387.716
			z"/>
	</defs>
	<clipPath id="SVGID_5_">
		<use xlink:href="#SVGID_4_"  overflow="visible"/>
	</clipPath>
	<g clip-path="url(#SVGID_5_)">
		
			<image overflow="visible" width="2275" height="624" xlink:href="D4AB548B6619E383.png"  transform="matrix(0.24 0 0 0.24 322.3281 307.4043)">
		</image>
	</g>
</g>
<g>
	
		<radialGradient id="SVGID_6_" cx="394.0635" cy="575.4521" r="0.393" gradientTransform="matrix(-526.1794 -66.4959 -268.1018 130.5055 362205 -48436.5)" gradientUnits="userSpaceOnUse">
		<stop  offset="0.8834" style="stop-color:#7D481D"/>
		<stop  offset="1" style="stop-color:#F78C1F"/>
	</radialGradient>
	<path fill="url(#SVGID_6_)" d="M421.741,428.187c48.833-23.77,166.114-33.219,261.95-21.109
		c95.837,12.113,133.947,41.199,85.111,64.97c-48.827,23.769-166.107,33.217-261.95,21.104
		C411.019,481.044,372.912,451.954,421.741,428.187z"/>
</g>
<g>
	<defs>
		<path id="SVGID_7_" d="M439.826,543.557h0.006l38.281,71.489h234.312l38.282-71.489h0.004c0.583-1.087,0.886-2.195,0.886-3.314
			c0-17.14-69.988-31.021-156.328-31.021c-86.336,0-156.331,13.882-156.331,31.021C438.939,541.361,439.244,542.47,439.826,543.557z
			"/>
	</defs>
	<clipPath id="SVGID_8_">
		<use xlink:href="#SVGID_7_"  overflow="visible"/>
	</clipPath>
	<g clip-path="url(#SVGID_8_)">
		
			<image overflow="visible" width="1449" height="442" xlink:href="D4AB548B6619E38C.png"  transform="matrix(0.24 0 0 0.24 421.4365 509.2227)">
		</image>
	</g>
</g>
<g>
	
		<radialGradient id="SVGID_9_" cx="409.9795" cy="478.418" r="0.3942" gradientTransform="matrix(-334.8172 -18.1348 -121.8635 49.8251 196156.5 -15785.125)" gradientUnits="userSpaceOnUse">
		<stop  offset="0.73" style="stop-color:#7D481D"/>
		<stop  offset="1" style="stop-color:#F78C1F"/>
	</radialGradient>
	<path fill="url(#SVGID_9_)" d="M484.853,607.662c22.197-9.077,89.627-13.759,150.61-10.454c60.983,3.3,92.43,13.332,70.229,22.413
		c-22.194,9.075-89.623,13.751-150.608,10.449C494.1,626.773,462.653,616.731,484.853,607.662z"/>
</g>
<g>
	<defs>
		<path id="SVGID_10_" d="M516.886,704.193h0.004L556,777.22h78.55l39.101-73.026l0,0c0.082-0.142,0.122-0.287,0.122-0.431
			c0-4.299-35.146-7.781-78.5-7.781c-43.352,0-78.504,3.482-78.504,7.781C516.769,703.906,516.81,704.052,516.886,704.193z"/>
	</defs>
	<clipPath id="SVGID_11_">
		<use xlink:href="#SVGID_10_"  overflow="visible"/>
	</clipPath>
	<g clip-path="url(#SVGID_11_)">
		
			<image overflow="visible" width="690" height="339" xlink:href="D4AB548B6619E38F.png"  transform="matrix(0.24 0 0 0.24 512.4902 695.9824)">
		</image>
	</g>
</g>
<path opacity="0.2" fill="#FFFFFF" d="M673.651,704.193c0,0,1.123-0.578-2.391-2.017c-5.442-2.23-42.487-5.966-78.288-5.437
	c-22.313,0.075-66.597,2.07-74.68,5.842c-2.152,1.005-1.369,1.738-1.369,1.738l-39.153-90.237c0,0-1.051-3.049,6.413-6.142
	c11.358-4.707,44.96-11.792,109.271-11.951c59.59-0.142,99.133,6.065,110.572,10.952c9.971,3.571,8.835,7.042,8.835,7.042
	L673.651,704.193z"/>
<path opacity="0.2" fill="#FFFFFF" d="M316.983,287.622l45.41,92.175c0,0-2.253-15.98,17-29
	c55.559-37.569,180.276-44.079,223.535-43.345c100.04,1.697,167.644,18.527,204.255,40.927
	c24.54,15.011,20.965,31.417,20.965,31.417l46.142-93.606c0,0,25.348-40.366-85.046-71.785
	c-40.976-11.66-109.604-24.283-189.288-23.524c-47.281,0.446-105.844,4.904-138.727,10.6
	C279.15,233.042,316.983,287.622,316.983,287.622z"/>
<path opacity="0.2" fill="#FFFFFF" d="M751.286,542.189c0,0,2.518-4.414-3.85-9.067c-11.132-8.142-49.495-22.938-152.171-23.767
	c-80.507,0.406-131.169,10.729-150.531,22.562c-5.694,3.48-5.984,9.68-5.984,9.68l-37.128-86.173c0,0-5.605-7.628,5.317-17.64
	c20.462-18.752,84.708-35.982,184.689-35.967c130.979,0.016,181.912,23.439,194.637,38.837c6.624,8.013,2.723,14.595,2.723,14.595
	L751.286,542.189z"/>
</svg>
